<svg id="Navbar_Logo" xmlns="http://www.w3.org/2000/svg" width="200" height="20.26" viewBox="0 0 200 20.26">
  <g id="组_23" data-name="组 23" transform="translate(52.785)">
    <path id="路径_17" data-name="路径 17" d="M101.772,76.379H92.961a3.822,3.822,0,0,1-3.241-1.806,7.439,7.439,0,0,1-1.278-4.411V59.389h1.916V69.978a7.286,7.286,0,0,0,.724,3.276,2.159,2.159,0,0,0,1.879,1.187h8.811Z" transform="translate(-88.442 -59.381)" fill="#fff"/>
    <rect id="矩形_79" data-name="矩形 79" width="1.879" height="12.382" transform="translate(17.059 4.583)" fill="#fff"/>
    <path id="路径_18" data-name="路径 18" d="M121.8,61.265h-2.468a2.316,2.316,0,0,0-1.864.9,3.17,3.17,0,0,0-.738,2.06V66.7h4.992V68.58h-4.992v7.8h-1.879V64.085a4.706,4.706,0,0,1,1.269-3.335,4.226,4.226,0,0,1,3.231-1.362H121.8Z" transform="translate(-91.559 -59.381)" fill="#fff"/>
    <path id="路径_19" data-name="路径 19" d="M139.343,71.23a4.51,4.51,0,0,0,1.3-3.289,5.232,5.232,0,0,0-1.136-3.508,4.041,4.041,0,0,0-3.328-1.45h-6.694a4.247,4.247,0,0,0-3.239,1.29,4.626,4.626,0,0,0-1.218,3.318v4.518a4.737,4.737,0,0,0,1.244,3.348,4.256,4.256,0,0,0,3.274,1.346H138.4V74.924h-8.862a2.29,2.29,0,0,1-1.877-.893,3.167,3.167,0,0,1-.631-1.487h9A4.491,4.491,0,0,0,139.343,71.23Zm-11.706-5.546a2.294,2.294,0,0,1,1.85-.828l6.552,0a2.484,2.484,0,0,1,1.972.7,2.876,2.876,0,0,1,.757,2.033,3.412,3.412,0,0,1-.663,2.175,2.56,2.56,0,0,1-2.066.9h-9.1V67.672A3,3,0,0,1,127.637,65.684Z" transform="translate(-92.761 -59.805)" fill="#fff"/>
    <path id="路径_20" data-name="路径 20" d="M161.073,71.6a5.437,5.437,0,0,1-1.318,3.664A4.148,4.148,0,0,1,156.47,76.8h-6.226a4.287,4.287,0,0,1-3.276-1.441,5.053,5.053,0,0,1-1.329-3.543V63.2h1.877V71.82a4.347,4.347,0,0,0,.8,2.61,2.525,2.525,0,0,0,1.928.865h6.226a2.528,2.528,0,0,0,1.928-.865,4.4,4.4,0,0,0,.8-2.61V63.2h1.877Z" transform="translate(-95.194 -59.831)" fill="#fff"/>
    <path id="路径_21" data-name="路径 21" d="M180.359,64.423a4.426,4.426,0,0,0-3.224-1.221H170.9a4.305,4.305,0,0,0-3.285,1.422,4.8,4.8,0,0,0-1.32,3.391V80.091h1.877V76.813h8.9a4.251,4.251,0,0,0,3.28-1.321,4.712,4.712,0,0,0,1.241-3.358V67.617A4.262,4.262,0,0,0,180.359,64.423Zm-.67,7.567a3.186,3.186,0,0,1-.721,2.06,2.284,2.284,0,0,1-1.881.9h-8.91V67.8a2.713,2.713,0,0,1,2.723-2.721h6.242a2.326,2.326,0,0,1,1.856.81,2.992,2.992,0,0,1,.691,2Z" transform="translate(-97.633 -59.831)" fill="#fff"/>
    <path id="路径_22" data-name="路径 22" d="M200.116,59.38v3.352h-8.9a4.27,4.27,0,0,0-3.278,1.32,4.7,4.7,0,0,0-1.244,3.361v4.52a4.233,4.233,0,0,0,1.244,3.189,4.419,4.419,0,0,0,3.222,1.222h6.227a4.305,4.305,0,0,0,3.29-1.423,4.8,4.8,0,0,0,1.32-3.39V59.38Zm-.789,14.289a2.645,2.645,0,0,1-1.933.8h-6.237a2.332,2.332,0,0,1-1.858-.811,2.991,2.991,0,0,1-.691-2V67.557a3.182,3.182,0,0,1,.722-2.06,2.284,2.284,0,0,1,1.881-.9h8.906v7.144A2.641,2.641,0,0,1,199.326,73.669Z" transform="translate(-100.041 -59.38)" fill="#fff"/>
    <path id="路径_23" data-name="路径 23" d="M221.208,64.344a4.238,4.238,0,0,0-3.239-1.361h-8.8v1.874h8.866a2.4,2.4,0,0,1,1.663.639,2.951,2.951,0,0,1,.9,1.63h-9.059a4.514,4.514,0,0,0-3.287,1.323,4.445,4.445,0,0,0-1.341,3.3,5.359,5.359,0,0,0,1.183,3.572A4.3,4.3,0,0,0,211.52,76.8h10.959V67.676A4.735,4.735,0,0,0,221.208,64.344Zm-9.693,10.579a2.578,2.578,0,0,1-1.931-.84,2.84,2.84,0,0,1-.8-1.99,3.358,3.358,0,0,1,.715-2.212A2.431,2.431,0,0,1,211.52,69H220.6v5.92Z" transform="translate(-102.428 -59.805)" fill="#fff"/>
    <path id="路径_24" data-name="路径 24" d="M234.42,76.379h-1.774a4.241,4.241,0,0,1-3.238-1.364,4.68,4.68,0,0,1-1.276-3.329v-12.3h1.907v3.336h4.293v1.859h-4.293v6.958a3.251,3.251,0,0,0,.724,2.066,2.308,2.308,0,0,0,1.884.893h1.774Z" transform="translate(-104.933 -59.381)" fill="#fff"/>
    <path id="路径_25" data-name="路径 25" d="M251.966,71.23a4.492,4.492,0,0,0,1.306-3.289,5.266,5.266,0,0,0-1.129-3.508,4.065,4.065,0,0,0-3.336-1.45H242.12a4.266,4.266,0,0,0-3.246,1.29,4.643,4.643,0,0,0-1.215,3.318v4.518a4.74,4.74,0,0,0,1.248,3.348,4.248,4.248,0,0,0,3.274,1.346h8.845V74.924h-8.85a2.29,2.29,0,0,1-1.883-.893,3.182,3.182,0,0,1-.629-1.487h9A4.453,4.453,0,0,0,251.966,71.23Zm-11.7-5.546a2.29,2.29,0,0,1,1.847-.828l6.549.019a2.427,2.427,0,0,1,1.976.688,2.871,2.871,0,0,1,.75,2.033,3.381,3.381,0,0,1-.663,2.175,2.545,2.545,0,0,1-2.058.9h-9.1V67.672A3,3,0,0,1,240.269,65.684Z" transform="translate(-106.058 -59.805)" fill="#fff"/>
    <path id="路径_26" data-name="路径 26" d="M106.051,60.244l-2.2,2.2,1.162,1.158,2.2-2.2a1.285,1.285,0,0,1,1.819,0l2.2,2.2,1.157-1.158-2.2-2.2a2.929,2.929,0,0,0-4.135,0" transform="translate(-90.261 -59.381)" fill="#fff"/>
  </g>
  <path id="路径_27" data-name="路径 27" d="M40.886,64.148l-12.3,12.289H41.533l5.818-5.823a7.155,7.155,0,0,1,10.143,0l5.829,5.823H76.259l-12.3-12.289A16.337,16.337,0,0,0,40.886,64.148Z" transform="translate(-28.591 -59.38)" fill="#fff"/>
</svg>
