<svg width="60" height="60" viewBox="0 0 60 60" fill="none" xmlns="http://www.w3.org/2000/svg">
<path d="M30 60C46.5685 60 60 46.5685 60 30C60 13.4315 46.5685 0 30 0C13.4315 0 0 13.4315 0 30C0 46.5685 13.4315 60 30 60Z" fill="#0080AE"/>
<path d="M35.1948 44.4597V30.7487H43.5751C44.8398 30.7487 45.4781 29.2121 44.5798 28.3256L30.9988 14.8167C30.4432 14.2611 29.5568 14.2611 29.0012 14.8167L15.4202 28.3256C14.5219 29.2239 15.1602 30.7487 16.4249 30.7487H24.7934V44.4597C24.7934 45.2398 25.4316 45.8781 26.2117 45.8781H33.7764C34.5566 45.8793 35.1948 45.2398 35.1948 44.4597Z" fill="white"/>
</svg>
