<svg xmlns="http://www.w3.org/2000/svg" width="700" height="100" viewBox="0 0 700 100">
  <g id="_91" data-name="91" transform="translate(14058 -4804)">
    <path id="路径_157" data-name="路径 157" d="M53.383-33.748q-8.232,8.7-19.231,8.7-12.955,0-20.648-9.076T5.813-57.972A39.1,39.1,0,0,1,9.726-75.583,29.182,29.182,0,0,1,20.86-87.864,31.589,31.589,0,0,1,37.594-92.25q14.845,0,23.549,11.066t8.7,29.622v4.588q0,26.586-12.011,40.553T22.007,7.75H20.05V-5.813h2.362q14.507-.2,22.267-6.984T53.383-33.748ZM37.594-37.864A16.547,16.547,0,0,0,46.838-40.7a18.675,18.675,0,0,0,6.68-7.827v-6.41q0-10.864-4.453-17.476T37.526-79.025a13.256,13.256,0,0,0-11.3,5.837q-4.217,5.837-4.217,14.744,0,9.244,4.251,14.912A13.466,13.466,0,0,0,37.594-37.864Zm92.24,45.209H113.5V-71.582L89.416-63.37V-77.135l38.327-14.1h2.092ZM221.6-15.529H183.545L175.583,7.345H157.837L194.949-90.9h15.317L247.445,7.345H229.632ZM188.336-29.295h28.475L202.574-70.05Zm87.314.2V7.345H258.579V-90.9h37.584q16.464,0,26.147,8.579t9.683,22.7q0,14.456-9.48,22.494t-26.552,8.039Zm0-13.765h20.513q9.109,0,13.9-4.285t4.791-12.382q0-7.962-4.858-12.719t-13.36-4.892H275.651Zm88.327,13.765V7.345H346.906V-90.9H384.49q16.464,0,26.147,8.579t9.683,22.7q0,14.456-9.48,22.494t-26.552,8.039Zm0-13.765H384.49q9.109,0,13.9-4.285t4.791-12.382q0-7.962-4.858-12.719t-13.36-4.892H363.977Z" transform="translate(-13874 4896.25)" fill="#0080ae"/>
    <rect id="矩形_266" data-name="矩形 266" width="700" height="100" transform="translate(-14058 4804)" fill="none"/>
  </g>
</svg>
