<svg xmlns="http://www.w3.org/2000/svg" width="700" height="100" viewBox="0 0 700 100">
  <g id="algolia" transform="translate(14968 -6301)">
    <path id="路径_169" data-name="路径 169" d="M63.9,16.184H26.2L18.31,38.845H.729L37.494-58.481H52.668L89.5,38.845H71.852ZM30.943,2.548H59.152l-14.1-40.374Zm86.5,22.794h44.185v13.5h-61.1V-58.481h16.912Zm127.473.869a32.337,32.337,0,0,1-14.639,10.428,59.726,59.726,0,0,1-21.257,3.543,41.887,41.887,0,0,1-21.658-5.548,36.956,36.956,0,0,1-14.539-15.876q-5.114-10.328-5.314-24.1v-7.62q0-22.059,10.561-34.459t29.479-12.4q16.243,0,25.8,8.055t11.5,23.162H228.27q-2.807-17.58-20.388-17.58-11.364,0-17.279,8.181t-6.116,24.009v7.479q0,15.761,6.651,24.476t18.483,8.715q12.968,0,18.449-5.882V1.746H208.016V-11.088h36.9ZM341.171-7.278q0,14.3-4.947,25.1A37.4,37.4,0,0,1,322.086,34.4a38.887,38.887,0,0,1-21.156,5.782A38.979,38.979,0,0,1,279.84,34.4a37.975,37.975,0,0,1-14.3-16.477q-5.047-10.7-5.114-24.666v-5.481q0-14.238,5.047-25.134a37.931,37.931,0,0,1,14.238-16.678,38.764,38.764,0,0,1,21.09-5.782,39.106,39.106,0,0,1,21.09,5.715,37.45,37.45,0,0,1,14.2,16.444q5.013,10.729,5.08,24.967Zm-16.912-5.08q0-16.176-6.116-24.8T300.8-45.781q-10.963,0-17.146,8.59t-6.317,24.3v5.615q0,16.043,6.25,24.8t17.346,8.757q11.23,0,17.279-8.556t6.049-25Zm50.668,37.7h44.184v13.5h-61.1V-58.481h16.912Zm75,13.5H433.082V-58.481h16.845ZM526.4,16.184H488.7l-7.888,22.66h-17.58l36.765-97.326h15.174L552,38.845H534.353ZM493.443,2.548h28.209l-14.1-40.374Z" transform="translate(-14894.729 6360.818)" fill="#0080ae"/>
    <rect id="矩形_280" data-name="矩形 280" width="700" height="100" transform="translate(-14968 6301)" fill="none"/>
  </g>
</svg>
