<svg xmlns="http://www.w3.org/2000/svg" width="700" height="100" viewBox="0 0 700 100">
  <g id="aws" transform="translate(14985 -5569)">
    <path id="路径_165" data-name="路径 165" d="M63.9,16.184H26.2L18.31,38.845H.729L37.494-58.481H52.668L89.5,38.845H71.852ZM30.943,2.548H59.152l-14.1-40.374ZM174.259,14.781l14.973-73.262H206.01L183.55,38.845H167.374L148.858-32.211,129.941,38.845H113.7L91.238-58.481h16.778l15.107,73.128,18.583-73.128h14.171Zm94.987-1q0-6.417-4.512-9.893T248.457-3.134q-11.765-3.543-18.717-7.888-13.3-8.356-13.3-21.791,0-11.765,9.592-19.385t24.9-7.62a42.059,42.059,0,0,1,18.115,3.743,29.733,29.733,0,0,1,12.5,10.662,27.346,27.346,0,0,1,4.545,15.341H269.246q0-7.62-4.779-11.932T250.8-46.316q-8.289,0-12.868,3.543a11.8,11.8,0,0,0-4.579,9.893q0,5.348,4.947,8.924T254.607-17a75.025,75.025,0,0,1,18.249,7.687A29.026,29.026,0,0,1,282.949.576a25.765,25.765,0,0,1,3.209,13.068q0,12.166-9.325,19.352t-25.3,7.186a47.544,47.544,0,0,1-19.418-3.91,32.62,32.62,0,0,1-13.77-10.8A26.9,26.9,0,0,1,213.43,9.433h16.912q0,8.289,5.481,12.834t15.709,4.545q8.823,0,13.269-3.576A11.538,11.538,0,0,0,269.246,13.778Z" transform="translate(-14778.729 5628.818)" fill="#0080ae"/>
    <rect id="矩形_276" data-name="矩形 276" width="700" height="100" transform="translate(-14985 5569)" fill="none"/>
  </g>
</svg>
