<svg xmlns="http://www.w3.org/2000/svg" width="700" height="100" viewBox="0 0 700 100">
  <g id="gcp" transform="translate(14985 -5757)">
    <path id="路径_166" data-name="路径 166" d="M81.7,26.211A32.337,32.337,0,0,1,67.063,36.639a59.726,59.726,0,0,1-21.257,3.543,41.887,41.887,0,0,1-21.658-5.548A36.956,36.956,0,0,1,9.61,18.758Q4.5,8.43,4.3-5.34v-7.62q0-22.059,10.561-34.459t29.479-12.4q16.243,0,25.8,8.055T81.635-28.6H65.058Q62.25-46.182,44.67-46.182q-11.364,0-17.279,8.181T21.275-13.992v7.479q0,15.761,6.651,24.476t18.483,8.715q12.968,0,18.449-5.882V1.746H44.8V-11.088H81.7ZM174.55,7.16q-1.471,15.575-11.5,24.3t-26.671,8.723a37.952,37.952,0,0,1-20.488-5.515,36.2,36.2,0,0,1-13.67-15.675Q97.411,8.831,97.21-4.6V-13.7q0-13.77,4.88-24.265a36.775,36.775,0,0,1,14-16.176,39.063,39.063,0,0,1,21.09-5.682q16.11,0,25.936,8.723t11.43,24.7H157.705q-1.2-10.495-6.116-15.14t-14.405-4.646q-11.029,0-16.945,8.062t-6.049,23.652v8.631q0,15.789,5.648,24.086t16.544,8.3q9.96,0,14.973-4.479t6.35-14.906Zm32.019-4.412v36.1H189.657V-58.481h37.233q16.31,0,25.9,8.5T262.384-27.5q0,14.32-9.392,22.284t-26.3,7.963Zm0-13.636h20.321q9.024,0,13.77-4.245T245.406-27.4q0-7.888-4.813-12.6t-13.235-4.846H206.569Z" transform="translate(-14768.296 5816.818)" fill="#0080ae"/>
    <rect id="矩形_277" data-name="矩形 277" width="700" height="100" transform="translate(-14985 5757)" fill="none"/>
  </g>
</svg>
