<svg xmlns="http://www.w3.org/2000/svg" width="700" height="100" viewBox="0 0 700 100">
  <g id="linode" transform="translate(14985 -5950)">
    <path id="路径_167" data-name="路径 167" d="M22.91,25.342H67.094v13.5H6V-58.481H22.91Zm75,13.5H81.065V-58.481H97.91Zm97.995,0H178.993L135.61-30.206V38.845H118.7V-58.481H135.61l43.516,69.318V-58.481H195.9Zm97.66-46.123q0,14.3-4.947,25.1A37.4,37.4,0,0,1,274.481,34.4a38.886,38.886,0,0,1-21.156,5.782,38.979,38.979,0,0,1-21.09-5.782,37.975,37.975,0,0,1-14.3-16.477q-5.047-10.7-5.114-24.666v-5.481q0-14.238,5.047-25.134A37.931,37.931,0,0,1,232.1-54.036a38.764,38.764,0,0,1,21.09-5.782A39.106,39.106,0,0,1,274.28-54.1a37.45,37.45,0,0,1,14.2,16.444q5.013,10.729,5.08,24.967Zm-16.912-5.08q0-16.176-6.116-24.8t-17.346-8.623q-10.963,0-17.146,8.59t-6.317,24.3v5.615q0,16.043,6.25,24.8t17.346,8.757q11.23,0,17.279-8.556t6.049-25Zm33.757,51.2V-58.481h28.743a45.084,45.084,0,0,1,22.894,5.749,39.2,39.2,0,0,1,15.475,16.31A51.773,51.773,0,0,1,383-12.225v4.88q0,13.837-5.515,24.332A38.726,38.726,0,0,1,361.78,33.163a47.172,47.172,0,0,1-23.362,5.682Zm16.912-83.69V25.342h11.029q13.3,0,20.421-8.322t7.253-23.9v-5.414q0-15.842-6.885-24.2t-19.987-8.356ZM456.733-4.6H416.76V25.342h46.725v13.5H399.848V-58.481h63.168v13.636H416.76v26.872h39.973Z" transform="translate(-14869.997 6009.818)" fill="#0080ae"/>
    <rect id="矩形_278" data-name="矩形 278" width="700" height="100" transform="translate(-14985 5950)" fill="none"/>
  </g>
</svg>
