<svg xmlns="http://www.w3.org/2000/svg" width="700" height="100" viewBox="0 0 700 100">
  <g id="meta" transform="translate(14985 -5240)">
    <path id="路径_163" data-name="路径 163" d="M28.526-59.008,57.372,17.641,86.149-59.008h22.459v100H91.3V8.025l1.717-44.093L63.484,40.992H51.053L21.589-36,23.306,8.025V40.992H6v-100ZM187.591-3.651H146.52V27.119h48.008V40.992H129.144v-100h64.9V-45H146.52v27.61h41.071ZM282.3-45H251.122V40.992H233.883V-45H202.976V-59.008H282.3Zm60.852,62.706H304.418l-8.1,23.283H278.251l37.775-100h15.591l37.843,100H351.328ZM309.295,3.7h28.983L323.786-37.785Z" transform="translate(-14822.998 5299.008)" fill="#0080ae"/>
    <rect id="矩形_274" data-name="矩形 274" width="700" height="100" transform="translate(-14985 5240)" fill="none"/>
  </g>
</svg>
