<svg xmlns="http://www.w3.org/2000/svg" width="700" height="100" viewBox="0 0 700 100">
  <g id="momo" transform="translate(14985 -4527)">
    <path id="路径_160" data-name="路径 160" d="M27.923-58.481,56,16.117l28.008-74.6h21.858V38.845H89.019V6.759l1.671-42.914-28.743,75h-12.1L21.172-36.088,22.843,6.759V38.845H6V-58.481Zm175.6,51.2q0,14.3-4.947,25.1A37.4,37.4,0,0,1,184.441,34.4a38.886,38.886,0,0,1-21.156,5.782,38.98,38.98,0,0,1-21.09-5.782,37.975,37.975,0,0,1-14.3-16.477q-5.047-10.7-5.114-24.666v-5.481q0-14.238,5.047-25.134a37.931,37.931,0,0,1,14.238-16.678,38.764,38.764,0,0,1,21.09-5.782A39.106,39.106,0,0,1,184.24-54.1a37.45,37.45,0,0,1,14.2,16.444q5.013,10.729,5.08,24.967Zm-16.912-5.08q0-16.176-6.116-24.8T163.15-45.781q-10.963,0-17.146,8.59t-6.317,24.3v5.615q0,16.043,6.25,24.8t17.346,8.757q11.23,0,17.279-8.556t6.049-25Zm55.682-46.123,28.075,74.6,28.008-74.6h21.858V38.845H303.391V6.759l1.671-42.914-28.743,75h-12.1L235.544-36.088l1.671,42.848V38.845H220.37V-58.481Zm175.6,51.2q0,14.3-4.947,25.1A37.4,37.4,0,0,1,398.812,34.4a38.886,38.886,0,0,1-21.156,5.782,38.979,38.979,0,0,1-21.09-5.782,37.975,37.975,0,0,1-14.3-16.477q-5.047-10.7-5.114-24.666v-5.481q0-14.238,5.047-25.134a37.931,37.931,0,0,1,14.238-16.678,38.764,38.764,0,0,1,21.09-5.782,39.106,39.106,0,0,1,21.09,5.715,37.45,37.45,0,0,1,14.2,16.444q5.013,10.729,5.08,24.967Zm-16.912-5.08q0-16.176-6.116-24.8t-17.346-8.623q-10.963,0-17.146,8.59t-6.317,24.3v5.615q0,16.043,6.25,24.8t17.346,8.757q11.23,0,17.279-8.556t6.049-25Z" transform="translate(-14846.998 4586.818)" fill="#0080ae"/>
    <rect id="矩形_270" data-name="矩形 270" width="700" height="100" transform="translate(-14985 4527)" fill="none"/>
  </g>
</svg>
