<svg xmlns="http://www.w3.org/2000/svg" width="700" height="100" viewBox="0 0 700 100">
  <g id="pchome" transform="translate(14966 -4369)">
    <path id="路径_159" data-name="路径 159" d="M22.91,2.748v36.1H6V-58.481H43.231q16.31,0,25.9,8.5T78.725-27.5q0,14.32-9.392,22.284T43.03,2.748Zm0-13.636H43.231q9.024,0,13.77-4.245T61.747-27.4q0-7.888-4.813-12.6T43.7-44.845H22.91ZM167.763,7.16q-1.471,15.575-11.5,24.3t-26.671,8.723a37.952,37.952,0,0,1-20.488-5.515,36.2,36.2,0,0,1-13.67-15.675Q90.624,8.831,90.423-4.6V-13.7q0-13.77,4.88-24.265a36.775,36.775,0,0,1,14-16.176,39.063,39.063,0,0,1,21.09-5.682q16.11,0,25.936,8.723t11.43,24.7H150.918q-1.2-10.495-6.116-15.14T130.4-46.182q-11.029,0-16.945,8.062T107.4-14.468v8.631q0,15.789,5.648,24.086t16.544,8.3q9.96,0,14.973-4.479t6.35-14.906Zm92.38,31.684H243.3V-4.337H199.781V38.845H182.87V-58.481h16.912v40.508H243.3V-58.481h16.845ZM357.8-7.278q0,14.3-4.947,25.1A37.4,37.4,0,0,1,338.719,34.4a38.887,38.887,0,0,1-21.156,5.782,38.98,38.98,0,0,1-21.09-5.782,37.976,37.976,0,0,1-14.3-16.477q-5.047-10.7-5.114-24.666v-5.481q0-14.238,5.047-25.134a37.931,37.931,0,0,1,14.238-16.678,38.764,38.764,0,0,1,21.09-5.782,39.106,39.106,0,0,1,21.09,5.715,37.45,37.45,0,0,1,14.2,16.444q5.013,10.729,5.08,24.967Zm-16.912-5.08q0-16.176-6.116-24.8t-17.346-8.623q-10.963,0-17.146,8.59t-6.317,24.3v5.615q0,16.043,6.25,24.8t17.346,8.757q11.23,0,17.279-8.556t6.049-25Zm55.682-46.123,28.075,74.6,28.008-74.6h21.858V38.845H457.669V6.759l1.671-42.914-28.743,75H418.5L389.822-36.088l1.671,42.848V38.845H374.648V-58.481ZM551.386-4.6H511.413V25.342h46.725v13.5H494.5V-58.481h63.168v13.636H511.413v26.872h39.973Z" transform="translate(-14898.998 4428.818)" fill="#0080ae"/>
    <rect id="矩形_271" data-name="矩形 271" width="700" height="100" transform="translate(-14966 4369)" fill="none"/>
  </g>
</svg>
