<svg xmlns="http://www.w3.org/2000/svg" width="700" height="100" viewBox="0 0 700 100">
  <g id="pusher" transform="translate(14982 -6141)">
    <path id="路径_168" data-name="路径 168" d="M22.91,2.748v36.1H6V-58.481H43.231q16.31,0,25.9,8.5T78.725-27.5q0,14.32-9.392,22.284T43.03,2.748Zm0-13.636H43.231q9.024,0,13.77-4.245T61.747-27.4q0-7.888-4.813-12.6T43.7-44.845H22.91ZM164.688-58.481V6.559q0,15.508-9.926,24.566t-26.437,9.057q-16.711,0-26.537-8.924T91.961,6.492V-58.481h16.845V6.625q0,9.759,4.947,14.906t14.572,5.147q19.519,0,19.519-20.588V-58.481ZM233.6,13.778q0-6.417-4.512-9.893T212.816-3.134Q201.052-6.677,194.1-11.022q-13.3-8.356-13.3-21.791,0-11.765,9.592-19.385t24.9-7.62A42.059,42.059,0,0,1,233.4-56.075a29.733,29.733,0,0,1,12.5,10.662,27.346,27.346,0,0,1,4.545,15.341H233.6q0-7.62-4.779-11.932t-13.67-4.312q-8.289,0-12.868,3.543a11.8,11.8,0,0,0-4.579,9.893q0,5.348,4.947,8.924T218.966-17a75.025,75.025,0,0,1,18.249,7.687A29.026,29.026,0,0,1,247.308.576a25.765,25.765,0,0,1,3.209,13.068q0,12.166-9.325,19.352t-25.3,7.186a47.545,47.545,0,0,1-19.418-3.91,32.62,32.62,0,0,1-13.77-10.8,26.9,26.9,0,0,1-4.913-16.043H194.7q0,8.289,5.481,12.834t15.709,4.545q8.824,0,13.269-3.576A11.538,11.538,0,0,0,233.6,13.778ZM342.629,38.845H325.784V-4.337H282.268V38.845H265.356V-58.481h16.912v40.508h43.516V-58.481h16.845ZM419.5-4.6H379.527V25.342h46.725v13.5H362.616V-58.481h63.168v13.636H379.527v26.872H419.5Zm56.283,6.016h-18.85V38.845H440.022V-58.481h34.225q16.845,0,26,7.56t9.158,21.877q0,9.768-4.713,16.357A29.987,29.987,0,0,1,491.56-2.552l21.858,40.529v.868H495.3Zm-18.85-13.636h17.38q8.556,0,13.369-4.311t4.813-11.8q0-7.821-4.445-12.1t-13.269-4.412H456.934Z" transform="translate(-14891.997 6200.818)" fill="#0080ae"/>
    <rect id="矩形_279" data-name="矩形 279" width="700" height="100" transform="translate(-14982 6141)" fill="none"/>
  </g>
</svg>
