<svg xmlns="http://www.w3.org/2000/svg" width="700" height="100" viewBox="0 0 700 100">
  <g id="shopline" transform="translate(16337 -5131)">
    <path id="路径_158" data-name="路径 158" d="M58.815,13.778q0-6.417-4.512-9.893T38.026-3.134Q26.261-6.677,19.309-11.022q-13.3-8.356-13.3-21.791,0-11.765,9.592-19.385t24.9-7.62a42.059,42.059,0,0,1,18.115,3.743,29.733,29.733,0,0,1,12.5,10.662,27.346,27.346,0,0,1,4.545,15.341H58.815q0-7.62-4.779-11.932t-13.67-4.312q-8.289,0-12.868,3.543a11.8,11.8,0,0,0-4.579,9.893q0,5.348,4.947,8.924T44.175-17A75.024,75.024,0,0,1,62.424-9.317,29.026,29.026,0,0,1,72.518.576a25.765,25.765,0,0,1,3.209,13.068Q75.726,25.81,66.4,33T41.1,40.182a47.544,47.544,0,0,1-19.418-3.91,32.62,32.62,0,0,1-13.77-10.8A26.9,26.9,0,0,1,3,9.433H19.911q0,8.289,5.481,12.834T41.1,26.813q8.824,0,13.269-3.576A11.538,11.538,0,0,0,58.815,13.778ZM167.839,38.845H150.994V-4.337H107.478V38.845H90.566V-58.481h16.912v40.508h43.516V-58.481h16.845ZM265.5-7.278q0,14.3-4.947,25.1A37.4,37.4,0,0,1,246.415,34.4a38.886,38.886,0,0,1-21.156,5.782,38.979,38.979,0,0,1-21.09-5.782,37.975,37.975,0,0,1-14.3-16.477q-5.047-10.7-5.114-24.666v-5.481q0-14.238,5.047-25.134a37.931,37.931,0,0,1,14.238-16.678,38.764,38.764,0,0,1,21.09-5.782,39.106,39.106,0,0,1,21.09,5.715,37.449,37.449,0,0,1,14.2,16.444q5.013,10.729,5.08,24.967Zm-16.912-5.08q0-16.176-6.116-24.8t-17.346-8.623q-10.963,0-17.146,8.59t-6.317,24.3v5.615q0,16.043,6.25,24.8t17.346,8.757q11.23,0,17.279-8.556t6.049-25ZM299.256,2.748v36.1H282.344V-58.481h37.233q16.31,0,25.9,8.5T355.071-27.5q0,14.32-9.392,22.284t-26.3,7.963Zm0-13.636h20.321q9.024,0,13.77-4.245T338.093-27.4q0-7.888-4.813-12.6t-13.235-4.846H299.256Zm87.5,36.23H430.94v13.5h-61.1V-58.481h16.912Zm75,13.5H444.911V-58.481h16.845Zm97.995,0H542.839L499.456-30.206V38.845H482.544V-58.481h16.912l43.516,69.318V-58.481H559.75ZM636.622-4.6H596.649V25.342h46.725v13.5H579.737V-58.481h63.168v13.636H596.649v26.872h39.973Z" transform="translate(-16310.999 5190.818)" fill="#0080ae"/>
    <path id="路径_156" data-name="路径 156" d="M0,0H700V100H0Z" transform="translate(-16337 5131)" fill="none"/>
  </g>
</svg>
