<svg id="Footer_Line" xmlns="http://www.w3.org/2000/svg" width="40" height="40" viewBox="0 0 40 40">
  <rect id="矩形_282" data-name="矩形 282" width="40" height="40" rx="4" fill="#fff"/>
  <path id="路径_70" data-name="路径 70" d="M41.237,591.246c0-5.369-5.383-9.738-12-9.738s-12,4.369-12,9.738c0,4.814,4.269,8.846,10.036,9.608.391.084.922.258,1.057.592a2.469,2.469,0,0,1,.039,1.085l-.171,1.027c-.053.3-.242,1.186,1.039.647a38.73,38.73,0,0,0,9.428-6.967A8.664,8.664,0,0,0,41.237,591.246Zm-18.988-2.595a.234.234,0,0,1,.234.234v4.153H24.77a.232.232,0,0,1,.233.233v.842a.233.233,0,0,1-.233.234H21.407a.232.232,0,0,1-.161-.065h0l0,0h0l0,0a.234.234,0,0,1-.065-.161v-5.229a.233.233,0,0,1,.233-.234Zm14.992,0a.233.233,0,0,1,.233.234v.842a.233.233,0,0,1-.233.234H34.954v.883h2.287a.233.233,0,0,1,.233.234v.842a.234.234,0,0,1-.233.234H34.954v.884h2.287a.233.233,0,0,1,.233.233v.842a.234.234,0,0,1-.233.234H33.878a.235.235,0,0,1-.162-.065l0,0,0,0a.235.235,0,0,1-.066-.161v-5.229a.234.234,0,0,1,.065-.161l0,0,0,0a.235.235,0,0,1,.162-.066Zm-10.442,0a.233.233,0,0,1,.234.233v5.229a.234.234,0,0,1-.234.233h-.842a.234.234,0,0,1-.234-.233v-5.229a.233.233,0,0,1,.234-.233Zm2.127,0h.043l.013,0,.008,0,.014,0,.008,0,.013.006.007,0,.013.007.007,0,.012.009.006,0,.013.011,0,0,.014.014,0,0,.018.023,2.4,3.236v-3.106a.233.233,0,0,1,.234-.233h.841a.233.233,0,0,1,.234.233v5.229a.234.234,0,0,1-.234.233h-.841l-.06-.008h0l-.015,0-.007,0-.012,0-.011-.006-.007,0-.014-.009,0,0-.06-.058-2.4-3.24v3.106a.234.234,0,0,1-.234.233h-.841a.234.234,0,0,1-.234-.233v-5.229a.233.233,0,0,1,.234-.233Z" transform="translate(-9.237 -572.942)" fill="#00364a" fill-rule="evenodd"/>
</svg>
