<svg id="Website_Icon_Design_02" xmlns="http://www.w3.org/2000/svg" xmlns:xlink="http://www.w3.org/1999/xlink" width="360" height="360" viewBox="0 0 360 360">
  <defs>
    <clipPath id="clip-path">
      <circle id="椭圆_147" data-name="椭圆 147" cx="180" cy="180" r="180"/>
    </clipPath>
  </defs>
  <g id="_x30_2">
    <g id="组_667" data-name="组 667">
      <circle id="椭圆_146" data-name="椭圆 146" cx="180" cy="180" r="180" fill="#ffa052"/>
      <g id="组_666" data-name="组 666">
        <g id="组_665" data-name="组 665" clip-path="url(#clip-path)">
          <path id="路径_90" data-name="路径 90" d="M59.16,283.11,221.69,445.63,354.51,329.49,454.3,229.7,301,76.4" fill="#f48431"/>
        </g>
      </g>
      <path id="路径_91" data-name="路径 91" d="M180.11,285.37H63.99a7.042,7.042,0,0,1-7.02-7.02V81.66a7.042,7.042,0,0,1,7.02-7.02H180.11Z" fill="#576470"/>
      <path id="路径_92" data-name="路径 92" d="M296.01,285.37H180.11V74.63h115.9a7.042,7.042,0,0,1,7.02,7.02V278.33A7.04,7.04,0,0,1,296.01,285.37Z" fill="#484e54"/>
      <circle id="椭圆_148" data-name="椭圆 148" cx="8.78" cy="8.78" r="8.78" transform="translate(270.07 79.44)" fill="#ddd"/>
      <circle id="椭圆_149" data-name="椭圆 149" cx="8.78" cy="8.78" r="8.78" transform="translate(245.05 79.44)" fill="#efefef"/>
      <circle id="椭圆_150" data-name="椭圆 150" cx="8.78" cy="8.78" r="8.78" transform="translate(220.02 79.44)" fill="#fff"/>
      <path id="路径_93" data-name="路径 93" d="M180,276.59H72.88a7.042,7.042,0,0,1-7.02-7.02V108a7.042,7.042,0,0,1,7.02-7.02H180Z" fill="#fff"/>
      <path id="路径_94" data-name="路径 94" d="M287.12,276.59H180V100.98H287.12a7.042,7.042,0,0,1,7.02,7.02V269.56A7.038,7.038,0,0,1,287.12,276.59Z" fill="#f5f5f5"/>
      <path id="路径_95" data-name="路径 95" d="M123.51,153.66h0a19.61,19.61,0,0,1-19.61-19.61V100.97h38.05v34.24A18.447,18.447,0,0,1,123.51,153.66Z" fill="#0080ae"/>
      <path id="路径_96" data-name="路径 96" d="M161.56,153.66h0a19.61,19.61,0,0,1-19.61-19.61V100.97H180v34.24A18.447,18.447,0,0,1,161.56,153.66Z" fill="#ffa052"/>
      <path id="路径_97" data-name="路径 97" d="M85.17,153.66h0a19.32,19.32,0,0,1-19.32-19.32V108a7.016,7.016,0,0,1,7.02-7.02h31.02v33.95A18.714,18.714,0,0,1,85.17,153.66Z" fill="#77d6fb"/>
      <path id="路径_98" data-name="路径 98" d="M236.49,153.66h0a19.61,19.61,0,0,0,19.61-19.61V100.97H218.05v34.24A18.447,18.447,0,0,0,236.49,153.66Z" fill="#0080ae"/>
      <path id="路径_99" data-name="路径 99" d="M198.44,153.66h0a19.61,19.61,0,0,0,19.61-19.61V100.97H180v34.24A18.447,18.447,0,0,0,198.44,153.66Z" fill="#77d6fb"/>
      <path id="路径_100" data-name="路径 100" d="M274.83,153.66h0a19.32,19.32,0,0,0,19.32-19.32V108a7.016,7.016,0,0,0-7.02-7.02H256.1v33.95A18.729,18.729,0,0,0,274.83,153.66Z" fill="#ffa052"/>
      <path id="路径_101" data-name="路径 101" d="M135.19,225.08H92.16a7.042,7.042,0,0,1-7.02-7.02V171.52a7.042,7.042,0,0,1,7.02-7.02h43.02a7.042,7.042,0,0,1,7.02,7.02v46.54A7.027,7.027,0,0,1,135.19,225.08Z" fill="#77d6fb"/>
      <path id="路径_102" data-name="路径 102" d="M169.3,258.44H90.54a5.416,5.416,0,0,1-5.4-5.4V241.01a5.416,5.416,0,0,1,5.4-5.4H169.3a5.416,5.416,0,0,1,5.4,5.4v12.03A5.416,5.416,0,0,1,169.3,258.44Z" fill="#ffa052"/>
      <path id="路径_103" data-name="路径 103" d="M269.39,258.44H190.63a5.416,5.416,0,0,1-5.4-5.4V241.01a5.416,5.416,0,0,1,5.4-5.4h78.76a5.416,5.416,0,0,1,5.4,5.4v12.03A5.409,5.409,0,0,1,269.39,258.44Z" fill="#77d6fb"/>
      <path id="路径_104" data-name="路径 104" d="M201.48,225.08H158.46a7.042,7.042,0,0,1-7.02-7.02V171.52a7.042,7.042,0,0,1,7.02-7.02h43.02a7.042,7.042,0,0,1,7.02,7.02v46.54A7.042,7.042,0,0,1,201.48,225.08Z" fill="#0080ae"/>
      <path id="路径_105" data-name="路径 105" d="M267.77,225.08H224.75a7.042,7.042,0,0,1-7.02-7.02V171.52a7.042,7.042,0,0,1,7.02-7.02h43.02a7.042,7.042,0,0,1,7.02,7.02v46.54A7.035,7.035,0,0,1,267.77,225.08Z" fill="#ffa052"/>
    </g>
  </g>
</svg>
