<svg id="Website_Icon_Design_04" xmlns="http://www.w3.org/2000/svg" xmlns:xlink="http://www.w3.org/1999/xlink" width="360" height="360" viewBox="0 0 360 360">
  <defs>
    <clipPath id="clip-path">
      <circle id="椭圆_156" data-name="椭圆 156" cx="180" cy="180" r="180"/>
    </clipPath>
  </defs>
  <g id="_x30_4">
    <g id="组_694" data-name="组 694">
      <circle id="椭圆_155" data-name="椭圆 155" cx="180" cy="180" r="180" fill="#ffa052"/>
      <g id="组_691" data-name="组 691">
        <g id="组_690" data-name="组 690" clip-path="url(#clip-path)">
          <path id="路径_124" data-name="路径 124" d="M299.61,94.98l-30.41,21.5L213.69,60.96,203.37,163.01,59.97,264.37,246.29,497.96,474.44,269.82Z" fill="#f48431"/>
        </g>
      </g>
      <path id="路径_125" data-name="路径 125" d="M180.22,267.8H67.72a10.567,10.567,0,0,1-10.54-10.54V102.73A10.567,10.567,0,0,1,67.72,92.19h112.5Z" fill="#707789"/>
      <path id="路径_126" data-name="路径 126" d="M292.5,267.8H180.22V92.2H292.5a10.567,10.567,0,0,1,10.54,10.54V257.28A10.563,10.563,0,0,1,292.5,267.8Z" fill="#555a66"/>
      <g id="组_692" data-name="组 692">
        <path id="路径_127" data-name="路径 127" d="M180,249.91a70.24,70.24,0,1,1,0-140.48" fill="#9196aa"/>
        <path id="路径_128" data-name="路径 128" d="M180,109.43a70.24,70.24,0,0,1,0,140.48" fill="#707789"/>
      </g>
      <g id="组_693" data-name="组 693">
        <path id="路径_129" data-name="路径 129" d="M180,232.35a52.68,52.68,0,1,1,0-105.36" fill="#414952"/>
        <path id="路径_130" data-name="路径 130" d="M180,126.99a52.68,52.68,0,0,1,0,105.36" fill="#23272b"/>
      </g>
      <circle id="椭圆_157" data-name="椭圆 157" cx="8.78" cy="8.78" r="8.78" transform="translate(144.88 146.31)" fill="#fff"/>
      <circle id="椭圆_158" data-name="椭圆 158" cx="12.29" cy="12.29" r="12.29" transform="translate(155.42 162.99)" fill="#fff"/>
      <circle id="椭圆_159" data-name="椭圆 159" cx="15.8" cy="15.8" r="15.8" transform="translate(68.49 226.21)" fill="#bec3d2"/>
      <path id="路径_131" data-name="路径 131" d="M284.49,130.5H252a7.042,7.042,0,0,1-7.02-7.02V110.3a7.042,7.042,0,0,1,7.02-7.02h32.49a7.042,7.042,0,0,1,7.02,7.02v13.17A7.044,7.044,0,0,1,284.49,130.5Z" fill="#9196aa"/>
      <path id="路径_132" data-name="路径 132" d="M130.44,92.2l14.47-28.94a7.018,7.018,0,0,1,6.28-3.88h29.03V92.2Z" fill="#9196aa"/>
      <path id="路径_133" data-name="路径 133" d="M230,92.2,215.53,63.26a7.018,7.018,0,0,0-6.28-3.88H180.22V92.2Z" fill="#555a66"/>
      <path id="路径_134" data-name="路径 134" d="M143.76,92.2,154.36,71a5.141,5.141,0,0,1,4.6-2.84h21.26V92.2Z" fill="#bec3d2"/>
      <path id="路径_135" data-name="路径 135" d="M216.68,92.2,206.08,71a5.141,5.141,0,0,0-4.6-2.84H180.22V92.2Z" fill="#9196aa"/>
    </g>
  </g>
</svg>
