<svg id="Website_Icon_Design_06" xmlns="http://www.w3.org/2000/svg" xmlns:xlink="http://www.w3.org/1999/xlink" width="360" height="360" viewBox="0 0 360 360">
  <defs>
    <clipPath id="clip-path">
      <circle id="椭圆_171" data-name="椭圆 171" cx="180" cy="180" r="180"/>
    </clipPath>
  </defs>
  <g id="_x30_6">
    <g id="组_721" data-name="组 721">
      <circle id="椭圆_170" data-name="椭圆 170" cx="180" cy="180" r="180" fill="#ffa052"/>
      <g id="组_719" data-name="组 719">
        <g id="组_718" data-name="组 718" clip-path="url(#clip-path)">
          <path id="路径_155" data-name="路径 155" d="M247.12,80.78,475.19,308.85l-31.55,30.17L309.85,472.81,103.08,266.05" fill="#f48431"/>
        </g>
      </g>
      <g id="组_720" data-name="组 720">
        <rect id="矩形_252" data-name="矩形 252" width="87.8" height="24.59" transform="translate(103.08 241.46)" fill="#414952"/>
        <rect id="矩形_253" data-name="矩形 253" width="87.8" height="24.59" transform="translate(190.89 241.46)" fill="#333940"/>
        <rect id="矩形_254" data-name="矩形 254" width="175.61" height="24.59" transform="translate(127.669 90.439) rotate(90)" fill="#414952"/>
        <rect id="矩形_255" data-name="矩形 255" width="40.98" height="24.59" transform="translate(98.693 61.462) rotate(45)" fill="#414952"/>
        <circle id="椭圆_172" data-name="椭圆 172" cx="23.71" cy="23.71" r="23.71" transform="translate(118.01 251.12)" fill="#272f35"/>
        <circle id="椭圆_173" data-name="椭圆 173" cx="23.71" cy="23.71" r="23.71" transform="translate(216.35 251.12)" fill="#1a2328"/>
        <rect id="矩形_256" data-name="矩形 256" width="67.59" height="87.8" transform="translate(134.93 153.66)" fill="#72704c"/>
        <rect id="矩形_257" data-name="矩形 257" width="34.28" height="34.24" transform="translate(168.23 153.66)" fill="#54502c"/>
        <rect id="矩形_258" data-name="矩形 258" width="67.59" height="87.8" transform="translate(202.52 153.66)" fill="#5b5834"/>
        <rect id="矩形_259" data-name="矩形 259" width="34.28" height="34.24" transform="translate(202.52 153.66)" fill="#423d19"/>
        <rect id="矩形_260" data-name="矩形 260" width="56.1" height="72.88" transform="translate(134.93 80.78)" fill="#ddda66"/>
        <rect id="矩形_261" data-name="矩形 261" width="28.45" height="28.42" transform="translate(162.57 80.78)" fill="#ccc540"/>
        <rect id="矩形_262" data-name="矩形 262" width="56.1" height="72.88" transform="translate(191.03 80.78)" fill="#d1c74a"/>
        <rect id="矩形_263" data-name="矩形 263" width="28.45" height="28.42" transform="translate(191.03 80.78)" fill="#bab02d"/>
      </g>
    </g>
  </g>
</svg>
