<svg id="website_fill_blue" xmlns="http://www.w3.org/2000/svg" xmlns:xlink="http://www.w3.org/1999/xlink" width="410" height="410" viewBox="0 0 410 410">
  <defs>
    <clipPath id="clip-path">
      <circle id="椭圆_175" data-name="椭圆 175" cx="205" cy="205" r="205"/>
    </clipPath>
  </defs>
  <circle id="椭圆_174" data-name="椭圆 174" cx="205" cy="205" r="205" fill="#0080ae"/>
  <g id="组_723" data-name="组 723">
    <g id="组_722" data-name="组 722" clip-path="url(#clip-path)">
      <path id="路径_156" data-name="路径 156" d="M67.38,322.43l185.1,185.09L403.75,375.25,517.4,261.6,342.8,87.01" fill="#00a1cc"/>
    </g>
  </g>
  <g id="组_724" data-name="组 724">
    <path id="路径_157" data-name="路径 157" d="M205.25,324.75H73a8.024,8.024,0,0,1-8-8v-224a8.024,8.024,0,0,1,8-8H205.25Z" fill="#77d6fb"/>
    <path id="路径_158" data-name="路径 158" d="M337.25,324.75h-132v-240h132a8.024,8.024,0,0,1,8,8v224A8.024,8.024,0,0,1,337.25,324.75Z" fill="#37c9f7"/>
  </g>
  <circle id="椭圆_176" data-name="椭圆 176" cx="10" cy="10" r="10" transform="translate(307.25 90.75)" fill="#ddd"/>
  <circle id="椭圆_177" data-name="椭圆 177" cx="10" cy="10" r="10" transform="translate(278.75 90.75)" fill="#efefef"/>
  <circle id="椭圆_178" data-name="椭圆 178" cx="10" cy="10" r="10" transform="translate(250.25 90.75)" fill="#fff"/>
  <path id="路径_159" data-name="路径 159" d="M205.25,315.75h-122a8.024,8.024,0,0,1-8-8v-184a8.024,8.024,0,0,1,8-8h122Z" fill="#fff"/>
  <path id="路径_160" data-name="路径 160" d="M327.25,315.75h-122v-200h122a8.024,8.024,0,0,1,8,8v184A8.024,8.024,0,0,1,327.25,315.75Z" fill="#f5f5f5"/>
  <path id="路径_161" data-name="路径 161" d="M182.25,232.75h-84a8.024,8.024,0,0,1-8-8v-80a8.024,8.024,0,0,1,8-8h84a8.024,8.024,0,0,1,8,8v80A8.024,8.024,0,0,1,182.25,232.75Z" fill="#ff7f51"/>
  <path id="路径_162" data-name="路径 162" d="M312.25,161.75h-84a8.024,8.024,0,0,1-8-8v-9a8.024,8.024,0,0,1,8-8h84a8.024,8.024,0,0,1,8,8v9A8.024,8.024,0,0,1,312.25,161.75Z" fill="#03b3e2"/>
  <path id="路径_163" data-name="路径 163" d="M312.25,205.42h-84a8.024,8.024,0,0,1-8-8v-9a8.024,8.024,0,0,1,8-8h84a8.024,8.024,0,0,1,8,8v9A8.024,8.024,0,0,1,312.25,205.42Z" fill="#03b3e2"/>
  <path id="路径_164" data-name="路径 164" d="M312.25,249.08h-84a8.024,8.024,0,0,1-8-8v-9a8.024,8.024,0,0,1,8-8h84a8.024,8.024,0,0,1,8,8v9A8.024,8.024,0,0,1,312.25,249.08Z" fill="#03b3e2"/>
  <path id="路径_165" data-name="路径 165" d="M312.25,292.75h-84a8.024,8.024,0,0,1-8-8v-9a8.024,8.024,0,0,1,8-8h84a8.024,8.024,0,0,1,8,8v9A8.024,8.024,0,0,1,312.25,292.75Z" fill="#03b3e2"/>
  <path id="路径_166" data-name="路径 166" d="M182.25,292.75h-84a8.024,8.024,0,0,1-8-8v-20a8.024,8.024,0,0,1,8-8h84a8.024,8.024,0,0,1,8,8v20A8.024,8.024,0,0,1,182.25,292.75Z" fill="#77d6fb"/>
</svg>
